<?xml version="1.0" standalone="no"?>
<!DOCTYPE svg PUBLIC "-//W3C//DTD SVG 20010904//EN"
 "http://www.w3.org/TR/2001/REC-SVG-20010904/DTD/svg10.dtd">
<svg version="1.0" xmlns="http://www.w3.org/2000/svg"
 width="450.000000pt" height="271.000000pt" viewBox="0 0 450.000000 271.000000"
 preserveAspectRatio="xMidYMid meet">

<g transform="translate(0.000000,271.000000) scale(0.100000,-0.100000)"
fill="#000000" stroke="none">
<path d="M957 1823 c314 -318 643 -652 731 -743 l161 -165 1 638 0 638 -52 -3
-53 -3 -3 -490 c-1 -269 -3 -496 -5 -504 -1 -8 -272 260 -602 595 l-600 609
-74 3 -74 3 570 -578z"/>
<path d="M1540 1963 l0 -436 50 -53 50 -53 0 440 0 439 155 0 155 0 0 -930 0
-930 -29 0 c-25 0 -119 91 -710 687 l-681 688 0 -742 0 -743 155 0 155 0 0
438 0 438 -48 47 c-26 26 -51 47 -55 47 -4 0 -7 -193 -7 -430 l0 -430 -45 0
-45 0 0 563 1 562 612 -618 612 -618 93 1 92 0 0 1035 0 1035 -255 0 -255 0 0
-437z"/>
<path d="M2780 2350 l0 -50 38 -1 c20 0 270 -1 555 0 284 0 517 -1 517 -3 0
-2 -207 -398 -460 -880 -253 -482 -460 -878 -460 -881 0 -3 26 -5 59 -5 l59 0
432 833 c238 457 457 878 487 935 l55 102 -641 0 -641 0 0 -50z"/>
<path d="M4122 2308 c-95 -179 -911 -1743 -918 -1760 -6 -17 15 -18 355 -18
l362 0 -3 53 -3 52 -272 3 c-150 1 -273 4 -273 6 0 1 205 394 455 872 250 478
455 872 455 877 0 4 -24 7 -54 7 l-54 0 -50 -92z"/>
<path d="M330 1320 l0 -990 50 0 50 0 2 866 3 866 705 -716 705 -716 3 72 3
71 -203 206 c-112 113 -454 459 -761 768 l-557 562 0 -989z"/>
<path d="M2780 2055 l0 -155 285 0 285 0 24 49 c14 27 22 51 19 55 -4 3 -120
6 -260 6 l-253 0 0 44 0 44 258 3 c141 2 294 2 339 -1 l82 -5 -350 -670 c-193
-368 -400 -766 -460 -882 l-110 -213 745 0 746 0 0 250 0 250 -275 0 -275 0
-25 -50 -25 -50 250 0 250 0 0 -145 0 -145 -610 0 c-335 0 -610 2 -610 3 0 2
205 394 455 870 251 477 458 874 461 882 5 13 -50 15 -470 15 l-476 0 0 -155z"/>
</g>
</svg>
